<svg width="127" height="20" viewBox="0 0 127 20" fill="none" xmlns="http://www.w3.org/2000/svg">
<path d="M79.0813 17C77.6647 18.4167 76.0148 19.125 74.1316 19.125C72.965 19.125 71.865 18.8917 70.8317 18.425C69.8151 17.9583 68.9235 17.3167 68.1569 16.5C67.4069 15.6833 66.807 14.725 66.357 13.625C65.9237 12.5083 65.707 11.3083 65.707 10.025C65.707 8.80834 65.9237 7.66667 66.357 6.6C66.807 5.51667 67.4153 4.575 68.1819 3.775C68.9652 2.95833 69.8818 2.31667 70.9317 1.85C71.9817 1.36667 73.1233 1.125 74.3565 1.125C76.0231 1.125 77.448 1.475 78.6313 2.175C79.8312 2.875 80.7312 3.81667 81.3312 5L78.7563 6.9C78.3063 6.01667 77.673 5.34167 76.8564 4.875C76.0564 4.40833 75.1815 4.175 74.2316 4.175C73.4816 4.175 72.79 4.33333 72.1567 4.65C71.54 4.96667 71.0067 5.4 70.5568 5.95C70.1235 6.5 69.7818 7.13334 69.5318 7.85C69.2985 8.56667 69.1818 9.325 69.1818 10.125C69.1818 10.9583 69.3152 11.7417 69.5818 12.475C69.8485 13.1917 70.2151 13.8167 70.6817 14.35C71.1484 14.8833 71.6984 15.3083 72.3317 15.625C72.9816 15.925 73.6816 16.075 74.4315 16.075C76.1481 16.075 77.698 15.2667 79.0813 13.65V12.4H75.5065V9.875H81.9311V19H79.0813V17Z" fill="#464646"/>
<path d="M90.6209 19.25C89.5709 19.25 88.621 19.075 87.771 18.725C86.9211 18.3583 86.1961 17.8667 85.5961 17.25C84.9962 16.6333 84.5295 15.9167 84.1962 15.1C83.8796 14.2833 83.7213 13.425 83.7213 12.525C83.7213 11.5917 83.8796 10.7167 84.1962 9.9C84.5129 9.06667 84.9712 8.34167 85.5711 7.725C86.1711 7.09167 86.8961 6.59167 87.746 6.225C88.6126 5.85833 89.5793 5.675 90.6459 5.675C91.7125 5.675 92.6624 5.85833 93.4957 6.225C94.3457 6.59167 95.0623 7.08334 95.6456 7.7C96.2456 8.31667 96.6955 9.03334 96.9955 9.85C97.3122 10.6667 97.4705 11.5167 97.4705 12.4C97.4705 12.6167 97.4622 12.825 97.4455 13.025C97.4455 13.225 97.4288 13.3917 97.3955 13.525H87.2711C87.3211 14.0417 87.446 14.5 87.646 14.9C87.846 15.3 88.1043 15.6417 88.421 15.925C88.7376 16.2083 89.096 16.425 89.4959 16.575C89.8959 16.725 90.3126 16.8 90.7459 16.8C91.4125 16.8 92.0375 16.6417 92.6208 16.325C93.2207 15.9917 93.629 15.5583 93.8457 15.025L96.7205 15.825C96.2372 16.825 95.4623 17.65 94.3957 18.3C93.3457 18.9333 92.0874 19.25 90.6209 19.25ZM94.0207 11.35C93.9373 10.3667 93.5707 9.58334 92.9207 9C92.2874 8.4 91.5125 8.1 90.5959 8.1C90.1459 8.1 89.7209 8.18334 89.3209 8.35C88.9376 8.5 88.596 8.71667 88.296 9C87.996 9.28334 87.746 9.625 87.546 10.025C87.3627 10.425 87.2544 10.8667 87.2211 11.35H94.0207Z" fill="#464646"/>
<path d="M105.586 19.25C104.536 19.25 103.586 19.075 102.736 18.725C101.886 18.3583 101.161 17.8667 100.561 17.25C99.9612 16.6333 99.4945 15.9167 99.1612 15.1C98.8446 14.2833 98.6862 13.425 98.6862 12.525C98.6862 11.5917 98.8446 10.7167 99.1612 9.9C99.4779 9.06667 99.9362 8.34167 100.536 7.725C101.136 7.09167 101.861 6.59167 102.711 6.225C103.578 5.85833 104.544 5.675 105.611 5.675C106.677 5.675 107.627 5.85833 108.461 6.225C109.311 6.59167 110.027 7.08334 110.611 7.7C111.211 8.31667 111.661 9.03334 111.96 9.85C112.277 10.6667 112.435 11.5167 112.435 12.4C112.435 12.6167 112.427 12.825 112.41 13.025C112.41 13.225 112.394 13.3917 112.36 13.525H102.236C102.286 14.0417 102.411 14.5 102.611 14.9C102.811 15.3 103.069 15.6417 103.386 15.925C103.703 16.2083 104.061 16.425 104.461 16.575C104.861 16.725 105.278 16.8 105.711 16.8C106.377 16.8 107.002 16.6417 107.586 16.325C108.186 15.9917 108.594 15.5583 108.811 15.025L111.686 15.825C111.202 16.825 110.427 17.65 109.361 18.3C108.311 18.9333 107.052 19.25 105.586 19.25ZM108.986 11.35C108.902 10.3667 108.536 9.58334 107.886 9C107.252 8.4 106.477 8.1 105.561 8.1C105.111 8.1 104.686 8.18334 104.286 8.35C103.903 8.5 103.561 8.71667 103.261 9C102.961 9.28334 102.711 9.625 102.511 10.025C102.328 10.425 102.219 10.8667 102.186 11.35H108.986Z" fill="#464646"/>
<path d="M123.426 19L119.626 13.325L117.826 15.1V19H114.476V0.75H117.826V11.825L123.076 5.925H126.65L121.776 11.475L127 19H123.426Z" fill="#464646"/>
<path d="M7.77218 1.25H10.822L17.5716 19H14.0218L12.3719 14.575H6.17227L4.54736 19H0.997559L7.77218 1.25ZM11.747 12.15L9.29709 5.175L6.74723 12.15H11.747Z" fill="#2A7AE4"/>
<path d="M19.1684 0.75H22.5182V14.8C22.5182 15.2833 22.6349 15.6583 22.8682 15.925C23.1015 16.1917 23.4348 16.325 23.8681 16.325C24.0681 16.325 24.2848 16.2917 24.5181 16.225C24.7681 16.1583 25.0014 16.075 25.2181 15.975L25.668 18.525C25.2181 18.7417 24.6931 18.9083 24.0931 19.025C23.4932 19.1417 22.9515 19.2 22.4682 19.2C21.4183 19.2 20.6017 18.925 20.0184 18.375C19.4517 17.8083 19.1684 17.0083 19.1684 15.975V0.75Z" fill="#2A7AE4"/>
<path d="M31.1273 19.25C29.7774 19.25 28.7524 18.8167 28.0525 17.95C27.3525 17.0833 27.0025 15.8 27.0025 14.1V5.9H30.3524V13.375C30.3524 15.3917 31.0773 16.4 32.5272 16.4C33.1772 16.4 33.8022 16.2083 34.4021 15.825C35.0188 15.425 35.5187 14.825 35.902 14.025V5.9H39.2518V15.15C39.2518 15.5 39.3102 15.75 39.4268 15.9C39.5602 16.05 39.7685 16.1333 40.0518 16.15V19C39.7185 19.0667 39.4352 19.1083 39.2019 19.125C38.9852 19.1417 38.7852 19.15 38.6019 19.15C38.0019 19.15 37.5103 19.0167 37.127 18.75C36.7603 18.4667 36.5437 18.0833 36.477 17.6L36.402 16.55C35.8187 17.45 35.0687 18.125 34.1521 18.575C33.2355 19.025 32.2272 19.25 31.1273 19.25Z" fill="#2A7AE4"/>
<path d="M50.3803 8.8C49.3637 8.81667 48.4554 9.01667 47.6555 9.4C46.8555 9.76667 46.2806 10.325 45.9306 11.075V19H42.5808V5.9H45.6556V8.7C45.8889 8.25 46.1639 7.85 46.4805 7.5C46.7972 7.13334 47.1388 6.81667 47.5055 6.55C47.8721 6.28334 48.2388 6.08334 48.6054 5.95C48.9887 5.8 49.3554 5.725 49.7054 5.725C49.8887 5.725 50.022 5.725 50.1053 5.725C50.2053 5.725 50.297 5.73334 50.3803 5.75V8.8Z" fill="#2A7AE4"/>
<path d="M55.6521 19.25C55.0188 19.25 54.4272 19.15 53.8772 18.95C53.3272 18.7333 52.8522 18.4417 52.4523 18.075C52.0523 17.6917 51.7356 17.25 51.5023 16.75C51.2857 16.25 51.1773 15.7 51.1773 15.1C51.1773 14.4833 51.3107 13.9167 51.5773 13.4C51.8606 12.8667 52.2439 12.4167 52.7273 12.05C53.2272 11.6833 53.8189 11.4 54.5022 11.2C55.1855 10.9833 55.9354 10.875 56.752 10.875C57.3353 10.875 57.902 10.925 58.4519 11.025C59.0186 11.125 59.5185 11.2667 59.9518 11.45V10.7C59.9518 9.83334 59.7019 9.16667 59.2019 8.7C58.7186 8.23334 57.9936 8 57.027 8C56.3271 8 55.6438 8.125 54.9771 8.375C54.3105 8.625 53.6272 8.99167 52.9272 9.475L51.9023 7.35C53.5855 6.23333 55.4021 5.675 57.352 5.675C59.2352 5.675 60.6935 6.14167 61.7267 7.075C62.7767 7.99167 63.3017 9.325 63.3017 11.075V15.15C63.3017 15.5 63.36 15.75 63.4766 15.9C63.61 16.05 63.8183 16.1333 64.1016 16.15V19C63.535 19.1167 63.0433 19.175 62.6267 19.175C61.9934 19.175 61.5018 19.0333 61.1518 18.75C60.8185 18.4667 60.6101 18.0917 60.5268 17.625L60.4518 16.9C59.8685 17.6667 59.1602 18.25 58.3269 18.65C57.4937 19.05 56.602 19.25 55.6521 19.25ZM56.602 16.8C57.1687 16.8 57.702 16.7 58.2019 16.5C58.7186 16.3 59.1186 16.0333 59.4019 15.7C59.7685 15.4167 59.9518 15.1 59.9518 14.75V13.25C59.5519 13.1 59.1186 12.9833 58.6519 12.9C58.1853 12.8 57.7353 12.75 57.302 12.75C56.4354 12.75 55.7271 12.95 55.1771 13.35C54.6271 13.7333 54.3522 14.225 54.3522 14.825C54.3522 15.3917 54.5688 15.8667 55.0021 16.25C55.4354 16.6167 55.9687 16.8 56.602 16.8Z" fill="#2A7AE4"/>
</svg>
